<svg xmlns="http://www.w3.org/2000/svg" viewBox="0 0 778.44 204.86"><defs><style>.a{fill:#007156;}.b{fill:#59934b;}.c{fill:#f9c41b;}</style></defs><path class="a" d="M208.7,487.14H162.23v-5.33a50.4,50.4,0,0,0,10.2-1.5q4.06-1.12,4.06-2.78a10.09,10.09,0,0,0-.16-1.66,7.51,7.51,0,0,0-.47-1.73l-9.26-23.89H127.37q-2.22,5.26-3.59,9.17c-.92,2.6-1.75,5-2.49,7.21a49.53,49.53,0,0,0-1.42,5.26,18.22,18.22,0,0,0-.39,3.31q0,3,5,4.65a41.43,41.43,0,0,0,11.19,2v5.33H93.53v-5.33a34.15,34.15,0,0,0,5.12-.87,17,17,0,0,0,5-1.91,19.61,19.61,0,0,0,4.89-4.25,27.43,27.43,0,0,0,3.38-6.12q8.43-20.07,18.59-45.09L148.67,379H155l37.26,92a17.84,17.84,0,0,0,2.68,4.73,18.2,18.2,0,0,0,4.18,3.53,17.77,17.77,0,0,0,4.72,1.77,24.91,24.91,0,0,0,4.89.79Zm-45-43.58-16.93-41.38L130.1,443.56Z" transform="translate(-93.53 -331.29)"/><path class="a" d="M282.74,438.23a24.85,24.85,0,0,1,5.24,8.22,29.51,29.51,0,0,1,1.69,10.41,29.08,29.08,0,0,1-10.95,23.3q-11,9.16-27.18,9.16a52.75,52.75,0,0,1-15-2.21,59.06,59.06,0,0,1-12.91-5.38l-3.39,5.49H214l-1.11-36.52h6.39a77.62,77.62,0,0,0,4.6,12.21,42.66,42.66,0,0,0,7,10.18,31.66,31.66,0,0,0,9.58,7.07,29.08,29.08,0,0,0,12.72,2.63,29.79,29.79,0,0,0,9.49-1.36,16.71,16.71,0,0,0,6.58-3.84,15.49,15.49,0,0,0,3.74-5.83,22.52,22.52,0,0,0,1.22-7.71,20.76,20.76,0,0,0-3.78-11.93,23.24,23.24,0,0,0-11.26-8.39q-5.13-1.94-11.74-4.3T236,435q-9.47-4.07-14.7-10.63T216,407.18a25.24,25.24,0,0,1,2.59-11.34,29.79,29.79,0,0,1,7.41-9.39,33.8,33.8,0,0,1,10.79-6.13,38.64,38.64,0,0,1,13-2.21,39.78,39.78,0,0,1,13.82,2.25,68,68,0,0,1,11.15,5.26l3.23-5.11h6.3l.63,35.4h-6.38q-1.72-6.09-3.9-11.65A40.32,40.32,0,0,0,269,394.19a25.67,25.67,0,0,0-8.27-6.95,25.29,25.29,0,0,0-12-2.59A18.84,18.84,0,0,0,236,389.23a14.32,14.32,0,0,0-5.27,11.2,18.7,18.7,0,0,0,3.38,11.46,24.58,24.58,0,0,0,9.85,7.47q5.75,2.64,11.3,4.55T266,428a82.28,82.28,0,0,1,9.1,4.43A34,34,0,0,1,282.74,438.23Z" transform="translate(-93.53 -331.29)"/><path class="a" d="M397.15,487.14H350.69v-5.33a50.63,50.63,0,0,0,10.2-1.5q4-1.12,4.05-2.78a11.15,11.15,0,0,0-.15-1.66,8,8,0,0,0-.48-1.73l-9.25-23.89H315.82q-2.2,5.26-3.59,9.17c-.92,2.6-1.75,5-2.49,7.21a52.08,52.08,0,0,0-1.42,5.26,18.22,18.22,0,0,0-.39,3.31q0,3,5,4.65a41.43,41.43,0,0,0,11.19,2v5.33H282v-5.33a33.94,33.94,0,0,0,5.12-.87,17.14,17.14,0,0,0,5-1.91,19.55,19.55,0,0,0,4.88-4.25,27.82,27.82,0,0,0,3.39-6.12q8.41-20.07,18.59-45.09T337.13,379h6.3l37.25,92a17.84,17.84,0,0,0,2.68,4.73,18.2,18.2,0,0,0,4.18,3.53,17.85,17.85,0,0,0,4.73,1.77,24.94,24.94,0,0,0,4.88.79Zm-45-43.58-16.93-41.38-16.69,41.38Z" transform="translate(-93.53 -331.29)"/><path class="b" d="M434.7,436.57v48.64c4.57,3.8,13.71,7.15,20.78,9.94V436.57Z" transform="translate(-93.53 -331.29)"/><path class="c" d="M402.71,388.38v70.86c6.65,6.75,11.22,12.89,20.36,18.36V388.38Z" transform="translate(-93.53 -331.29)"/><path class="b" d="M370.72,356.38v21.21c0,24.32,9.14,47.47,20.36,66.79v-88Z" transform="translate(-93.53 -331.29)"/><rect class="c" x="402.69" width="3.3" height="204.86"/><path class="a" d="M680.3,434.16q-4.37,0-6.69-1.73a8.65,8.65,0,0,1-3.17-4.88,28.72,28.72,0,0,1-.84-7.36V393.6H675v26.84a29.6,29.6,0,0,0,.34,4.71,6.31,6.31,0,0,0,1.51,3.37,5.61,5.61,0,0,0,7,0,6.37,6.37,0,0,0,1.49-3.37,29.54,29.54,0,0,0,.35-4.71V393.6H691v26.59a28.69,28.69,0,0,1-.85,7.36,8.71,8.71,0,0,1-3.14,4.88Q684.65,434.16,680.3,434.16Z" transform="translate(-93.53 -331.29)"/><path class="a" d="M703.82,433.72l-9-40.12h5.25l6.34,29.57,6-29.57h5.1l-8.86,40.12Z" transform="translate(-93.53 -331.29)"/><path class="a" d="M721.75,433.72l.75-40.12H728l7.09,32.54,7.13-32.54h5.45l.74,40.12h-4.51l-.44-29.13-6.79,29.13h-3.17l-6.74-29.13-.44,29.13Z" transform="translate(-93.53 -331.29)"/><path class="a" d="M775.34,434.16a10.46,10.46,0,0,1-5.77-1.48,9.37,9.37,0,0,1-3.49-4.11,17.31,17.31,0,0,1-1.39-6.1l5-1.33a22,22,0,0,0,.67,4.11,7.28,7.28,0,0,0,1.7,3.24,4.36,4.36,0,0,0,3.32,1.26,4.28,4.28,0,0,0,3.3-1.21,5,5,0,0,0,1.11-3.49,7.09,7.09,0,0,0-1.24-4.38,22.17,22.17,0,0,0-3.12-3.35l-6.73-5.94a11.32,11.32,0,0,1-2.93-3.79,12.29,12.29,0,0,1-.94-5.08,9,9,0,0,1,2.53-6.83,9.51,9.51,0,0,1,6.88-2.43,13,13,0,0,1,4.19.62,7.34,7.34,0,0,1,3,1.91,9.4,9.4,0,0,1,1.93,3.24,18.53,18.53,0,0,1,1,4.58l-4.76,1.29a20.51,20.51,0,0,0-.59-3.64,5.4,5.4,0,0,0-1.56-2.67,4.57,4.57,0,0,0-3.2-1,4.5,4.5,0,0,0-3.24,1.11,4.37,4.37,0,0,0-1.17,3.3,6.54,6.54,0,0,0,.62,3,9.22,9.22,0,0,0,2,2.43l6.79,5.94a21.58,21.58,0,0,1,4,4.73A12,12,0,0,1,785,424.6a10.1,10.1,0,0,1-1.24,5.13,8.26,8.26,0,0,1-3.39,3.29A10.51,10.51,0,0,1,775.34,434.16Z" transform="translate(-93.53 -331.29)"/><path class="a" d="M793.72,433.72v-36h-6.79V393.6h19v4.16h-6.59v36Z" transform="translate(-93.53 -331.29)"/><path class="a" d="M807.49,433.72,816,393.6h5.4L830,433.72h-5.3l-1.83-10.11h-8.17l-1.93,10.11Zm7.92-14.12h6.69l-3.37-18.08Z" transform="translate(-93.53 -331.29)"/><path class="a" d="M836.86,433.72v-36h-6.79V393.6h19v4.16h-6.59v36Z" transform="translate(-93.53 -331.29)"/><path class="a" d="M862.36,434.16a10.46,10.46,0,0,1-5.77-1.48,9.44,9.44,0,0,1-3.49-4.11,17.1,17.1,0,0,1-1.38-6.1l4.95-1.33a22,22,0,0,0,.67,4.11,7.2,7.2,0,0,0,1.71,3.24,4.32,4.32,0,0,0,3.31,1.26,4.25,4.25,0,0,0,3.3-1.21,5,5,0,0,0,1.11-3.49,7.09,7.09,0,0,0-1.24-4.38,22.17,22.17,0,0,0-3.12-3.35l-6.73-5.94a11.29,11.29,0,0,1-2.92-3.79,12.12,12.12,0,0,1-1-5.08,9,9,0,0,1,2.53-6.83,9.53,9.53,0,0,1,6.89-2.43,13,13,0,0,1,4.18.62,7.27,7.27,0,0,1,3,1.91,9.4,9.4,0,0,1,1.93,3.24,18.53,18.53,0,0,1,1,4.58l-4.75,1.29a19.62,19.62,0,0,0-.6-3.64,5.4,5.4,0,0,0-1.56-2.67,5.4,5.4,0,0,0-6.44.09,4.41,4.41,0,0,0-1.16,3.3,6.42,6.42,0,0,0,.62,3,9,9,0,0,0,2,2.43l6.79,5.94a21.31,21.31,0,0,1,4,4.73A11.9,11.9,0,0,1,872,424.6a10.2,10.2,0,0,1-1.23,5.13,8.34,8.34,0,0,1-3.4,3.29A10.46,10.46,0,0,1,862.36,434.16Z" transform="translate(-93.53 -331.29)"/><path class="a" d="M678.36,493.6a9,9,0,0,1-4.68-1.17,7.62,7.62,0,0,1-3-3.19,10.37,10.37,0,0,1-1-4.66,12.44,12.44,0,0,1,1.71-6.61,22.18,22.18,0,0,1,4.13-5c-.59-1.19-1.23-2.38-1.91-3.59a26.67,26.67,0,0,1-1.73-3.76,11.78,11.78,0,0,1-.72-4.09,9.9,9.9,0,0,1,1-4.65,7.65,7.65,0,0,1,3-3.1,9,9,0,0,1,4.56-1.11,10,10,0,0,1,4.33.89,7.33,7.33,0,0,1,3,2.55,6.85,6.85,0,0,1,1.14,4,11,11,0,0,1-1.21,5,22.84,22.84,0,0,1-2.95,4.46q-1.74,2.06-3.37,3.64l6,9.51a12.65,12.65,0,0,0,.91-2.35c.25-.88.46-1.81.64-2.8s.33-2,.43-2.87H694a15.75,15.75,0,0,1-.57,4.06,24.68,24.68,0,0,1-1.46,4,21.25,21.25,0,0,1-1.84,3.25,6.13,6.13,0,0,0,1.69,1.41,4.29,4.29,0,0,0,2.23.62v5.45h-.7a5.83,5.83,0,0,1-2.57-.67,9.34,9.34,0,0,1-2.06-1.51c-.61-.6-1.2-1.16-1.76-1.69a10.4,10.4,0,0,1-3.49,2.8A10.94,10.94,0,0,1,678.36,493.6Zm0-4.41a5.31,5.31,0,0,0,3.17-.92,11.26,11.26,0,0,0,2.23-2l-6.14-9.46a12.65,12.65,0,0,0-1.91,3.59,13,13,0,0,0-.71,4.23,8.53,8.53,0,0,0,.29,2.21,3.57,3.57,0,0,0,1,1.73A2.93,2.93,0,0,0,678.36,489.19Zm.55-18.82a18.77,18.77,0,0,0,2-2.92,20.23,20.23,0,0,0,1.51-3.6,12.66,12.66,0,0,0,.59-3.73,2.94,2.94,0,0,0-.89-2.26,3.33,3.33,0,0,0-2.33-.82,2.62,2.62,0,0,0-2.52,1.39,6.48,6.48,0,0,0-.75,3.12,14,14,0,0,0,.77,4.53C677.76,467.59,678.32,469,678.91,470.37Z" transform="translate(-93.53 -331.29)"/><path class="a" d="M711.3,493.15V453H720a15.33,15.33,0,0,1,7.06,1.37,7.79,7.79,0,0,1,3.71,4.08,18.08,18.08,0,0,1,1.12,6.79V480a20.31,20.31,0,0,1-1.12,7.18,8.57,8.57,0,0,1-3.61,4.43,12.92,12.92,0,0,1-6.72,1.51Zm5.6-4h3.17c2,0,3.5-.4,4.36-1.19a5.49,5.49,0,0,0,1.56-3.47,47.49,47.49,0,0,0,.27-5.49V466a25.53,25.53,0,0,0-.4-5,4.24,4.24,0,0,0-1.73-2.83,7.8,7.8,0,0,0-4.21-.89h-3Z" transform="translate(-93.53 -331.29)"/><path class="a" d="M746.86,493.6a10.46,10.46,0,0,1-5.77-1.49A9.37,9.37,0,0,1,737.6,488a17.26,17.26,0,0,1-1.39-6.09l5-1.34a22,22,0,0,0,.67,4.11,7.38,7.38,0,0,0,1.7,3.25,4.36,4.36,0,0,0,3.32,1.26,4.26,4.26,0,0,0,3.3-1.21,5,5,0,0,0,1.11-3.5A7.13,7.13,0,0,0,750,480.1a22.61,22.61,0,0,0-3.12-3.34l-6.73-5.95a11.26,11.26,0,0,1-2.93-3.79,12.24,12.24,0,0,1-.94-5.07,9.06,9.06,0,0,1,2.53-6.84,9.54,9.54,0,0,1,6.88-2.42,12.74,12.74,0,0,1,4.19.62,7.32,7.32,0,0,1,3,1.9,9.35,9.35,0,0,1,1.93,3.25,18.43,18.43,0,0,1,1,4.58l-4.76,1.29a19.5,19.5,0,0,0-.59-3.64,5.48,5.48,0,0,0-1.56-2.68,4.57,4.57,0,0,0-3.2-1,4.5,4.5,0,0,0-3.24,1.11,4.33,4.33,0,0,0-1.16,3.29,6.52,6.52,0,0,0,.61,3,8.91,8.91,0,0,0,2,2.43l6.79,5.94a21.64,21.64,0,0,1,4,4.74,12,12,0,0,1,1.73,6.51,10,10,0,0,1-1.24,5.12,8.28,8.28,0,0,1-3.39,3.3A10.48,10.48,0,0,1,746.86,493.6Z" transform="translate(-93.53 -331.29)"/><path class="a" d="M782.23,493.6a10.77,10.77,0,0,1-6.62-1.79,9.21,9.21,0,0,1-3.27-4.8,23.19,23.19,0,0,1-.91-6.74V466.11a24.49,24.49,0,0,1,.91-7.08,8.56,8.56,0,0,1,3.27-4.68,11.35,11.35,0,0,1,6.62-1.66,11.16,11.16,0,0,1,6,1.38,7.75,7.75,0,0,1,3.17,4,17.49,17.49,0,0,1,1,6.19v3.17H787v-2.83a30.4,30.4,0,0,0-.22-3.93,4.28,4.28,0,0,0-1.22-2.65,4.71,4.71,0,0,0-3.31-.95,4.94,4.94,0,0,0-3.47,1,4.89,4.89,0,0,0-1.41,2.87,25.15,25.15,0,0,0-.33,4.34v15.9a18.37,18.37,0,0,0,.5,4.78,4.2,4.2,0,0,0,1.63,2.5,5.64,5.64,0,0,0,3.08.74,4.41,4.41,0,0,0,3.26-1,4.79,4.79,0,0,0,1.24-2.79,29.88,29.88,0,0,0,.25-4.16v-3h5.3v3a21.46,21.46,0,0,1-.89,6.46,8.34,8.34,0,0,1-3.07,4.36A10.44,10.44,0,0,1,782.23,493.6Z" transform="translate(-93.53 -331.29)"/><path class="a" d="M797.68,493.15V453h5.6v36.11h10.25v4Z" transform="translate(-93.53 -331.29)"/><path class="a" d="M827.69,493.6q-4.35,0-6.68-1.74a8.63,8.63,0,0,1-3.17-4.87,28.72,28.72,0,0,1-.84-7.36V453h5.34v26.85a29.41,29.41,0,0,0,.35,4.7A6.27,6.27,0,0,0,824.2,488a5.57,5.57,0,0,0,7,0,6.41,6.41,0,0,0,1.49-3.37,29.47,29.47,0,0,0,.34-4.7V453h5.3v26.6a28.72,28.72,0,0,1-.84,7.36,8.69,8.69,0,0,1-3.14,4.87Q832.05,493.6,827.69,493.6Z" transform="translate(-93.53 -331.29)"/><path class="a" d="M844.24,493.15V453h9.21a16.63,16.63,0,0,1,4.73.6,8.13,8.13,0,0,1,3.34,1.83,7.48,7.48,0,0,1,2,3.14,14.08,14.08,0,0,1,.65,4.49,13.29,13.29,0,0,1-.62,4.28,6.13,6.13,0,0,1-1.88,2.85,6.62,6.62,0,0,1-3.25,1.34,8.64,8.64,0,0,1,3.91,1.85,7.82,7.82,0,0,1,2.21,3.37,15,15,0,0,1,.72,4.93,17.34,17.34,0,0,1-.6,4.71,9.3,9.3,0,0,1-1.85,3.61,8.43,8.43,0,0,1-3.22,2.3,11.91,11.91,0,0,1-4.64.82Zm5.59-23.38h3.32a8.39,8.39,0,0,0,3.72-.67,3.75,3.75,0,0,0,1.88-2.15,11.52,11.52,0,0,0,.54-3.86,7.32,7.32,0,0,0-.84-4,3.78,3.78,0,0,0-2.62-1.56,26.62,26.62,0,0,0-4.66-.33h-1.34Zm0,19.37h3.77q3.76,0,5-1.76t1.27-5.67a11.55,11.55,0,0,0-.67-4.23,5.07,5.07,0,0,0-2.13-2.58,7.67,7.67,0,0,0-3.94-.87h-3.32Z" transform="translate(-93.53 -331.29)"/><path class="a" d="M624,493.07H539.7L537.59,490H626.1Zm-26.88,14.4v-6.72a35,35,0,0,1,7.86,6.72Zm-3.16,0H583.43v-11A26.57,26.57,0,0,1,594,499Zm-13.69,0H569.73V499a26.58,26.58,0,0,1,10.54-2.53Zm-13.7,0h-7.86a35,35,0,0,1,7.86-6.72Zm8.13-29.84v9h-6.32v-9s0-2.66,3.16-2.66,3.16,2.66,3.16,2.66Zm11.1-6.86v15.9h-7.9v-15.9s0-3.19,4-3.19S585.8,470.77,585.8,470.77Zm9.75,6.86v9h-6.33v-9s0-2.66,3.17-2.66,3.16,2.66,3.16,2.66Zm-13.7-28.2,27.66,37.24h-4.74l-22.92-31.36-22.92,31.36h-4.74Zm-19-3,2.11-4h33.72l2.1,4Zm9.22-20.55v14.55h-5.79V425.86a2.91,2.91,0,0,1,5.79,0Zm8.43,0v14.55h-5.8V425.86a2.91,2.91,0,0,1,5.8,0Zm8.43-.45v15h-5.8v-15s0-2.21,2.9-2.21S589,425.41,589,425.41Zm8.43.45v14.55h-5.8V425.86a2.91,2.91,0,0,1,5.8,0Zm-32.67-12,3-3.26h28.19l3,3.26v2.2H564.72ZM581.85,360,594,407.06h-4.17l-7.14-41,4.17,41h-5Zm31.36,126.72-8.44-11.4-4-24.61,3.17-4.25-3.17-6V421.34l4.18-2.12v-3.41L598.2,408l-.8-1-12.66-46,1.85-1.4-3.85-6.73a2.5,2.5,0,0,0,1.63-2.39,2.53,2.53,0,1,0-5,0,2.5,2.5,0,0,0,1.63,2.39l-3.85,6.73,1.85,1.4-12.65,46-.81,1-6.79,7.77v3.41l4.18,2.12v19.07l-3.16,6,3.16,4.25-4,24.61-8.45,11.4H531.27v2.16l3.16,2v7.66l2.11,1.78v7.19l3.16,1.93V518h12.12a36,36,0,0,1,4.34-7.4h10.41V518h3.16v-7.4h10.54V518h3.16v-7.4H594V518h3.16v-7.4h10.41a35.76,35.76,0,0,1,4.35,7.4H624V509.4l3.16-1.93v-7.19l2.1-1.78v-7.66l3.17-2v-2.16H613.21" transform="translate(-93.53 -331.29)"/></svg>